<svg width="342" height="236" viewBox="0 0 342 236" fill="none" xmlns="http://www.w3.org/2000/svg">
<path fill-rule="evenodd" clip-rule="evenodd" d="M171.114 225.039C171.133 228.509 171.114 231.968 171.055 235.419C163.43 231.586 155.821 227.723 148.23 223.829C139.631 219.35 131.276 214.495 123.165 209.262C117.236 205.379 111.574 201.133 106.18 196.523C101.379 192.352 96.9855 187.801 92.9981 182.87C84.3195 171.851 79.7193 159.289 79.1973 145.183C78.8435 133.979 80.5143 123.088 84.2104 112.51C88.4692 101.838 91.6144 90.8477 93.6468 79.5411C97.4243 57.7248 96.795 36.0405 91.7595 14.489C90.5947 9.58853 89.1498 4.77243 87.4247 0.0394897C90.8849 0.0394897 94.3445 0.0394897 97.8047 0.0394897C99.3841 7.25951 100.908 14.4937 102.375 21.7432C103.603 27.924 104.468 34.1562 104.97 40.4391C105.729 54.0422 104.805 67.528 102.199 80.8976C100.964 87.0572 99.4691 93.1513 97.7162 99.1806C95.2115 107.41 92.7344 115.647 90.2851 123.892C89.8085 125.557 89.3562 127.229 88.9286 128.905C88.7664 129.608 88.6485 130.316 88.5747 131.028C116.097 104.312 143.601 77.5754 171.084 50.8191C171.124 64.6788 171.124 78.5385 171.084 92.3982C145.296 116.739 119.513 141.087 93.7353 165.442C93.5353 165.56 93.4469 165.727 93.4699 165.943C96.0201 171.3 99.2444 176.195 103.142 180.628C106.303 184.242 109.714 187.594 113.375 190.684C119.824 196.032 126.626 200.888 133.781 205.252C141.566 210 149.567 214.404 157.785 218.463C160.34 219.623 162.896 220.782 165.452 221.942C167.408 222.869 169.295 223.901 171.114 225.039Z" fill="#B60005"/>
<path d="M0.333313 0H97.8414L100.52 63.6898L0.333313 0Z" fill="#B60005"/>
<path fill-rule="evenodd" clip-rule="evenodd" d="M171.091 225.039C171.072 228.509 171.091 231.968 171.15 235.419C178.776 231.586 186.384 227.723 193.975 223.829C202.574 219.35 210.929 214.495 219.04 209.262C224.969 205.379 230.631 201.133 236.026 196.523C240.826 192.352 245.22 187.801 249.207 182.87C257.886 171.851 262.486 159.289 263.008 145.183C263.362 133.979 261.691 123.088 257.995 112.51C253.736 101.838 250.591 90.8477 248.558 79.5411C244.781 57.7248 245.41 36.0405 250.446 14.489C251.61 9.58853 253.055 4.77243 254.78 0.0394897C251.32 0.0394897 247.861 0.0394897 244.4 0.0394897C242.821 7.25951 241.297 14.4937 239.83 21.7432C238.602 27.924 237.737 34.1562 237.235 40.4391C236.476 54.0422 237.4 67.528 240.007 80.8976C241.242 87.0572 242.736 93.1513 244.489 99.1806C246.994 107.41 249.471 115.647 251.92 123.892C252.397 125.557 252.849 127.229 253.276 128.905C253.439 129.608 253.557 130.316 253.63 131.028C226.108 104.312 198.604 77.5754 171.121 50.8191C171.081 64.6788 171.081 78.5385 171.121 92.3982C196.909 116.739 222.693 141.087 248.47 165.442C248.67 165.56 248.758 165.727 248.735 165.943C246.185 171.3 242.961 176.195 239.063 180.628C235.902 184.242 232.491 187.594 228.83 190.684C222.381 196.032 215.579 200.888 208.424 205.252C200.639 210 192.638 214.404 184.42 218.463C181.865 219.623 179.309 220.782 176.753 221.942C174.798 222.869 172.91 223.901 171.091 225.039Z" fill="#B2B9BC"/>
<path d="M341.872 0H244.364L241.686 63.6898L291.119 32.2642L341.872 0Z" fill="#B2B9BC"/>
</svg>
